<svg id="visual" viewBox="0 0 960 540" width="960" height="540" xmlns="http://www.w3.org/2000/svg" xmlns:xlink="http://www.w3.org/1999/xlink" version="1.1"><g stroke-width="1" stroke-linejoin="bevel"><path d="M507 277L558 363L554 247Z" fill="#55e346" stroke="#55e346"></path><path d="M558 363L689 336L554 247Z" fill="#00683f" stroke="#00683f"></path><path d="M607 409L689 336L558 363Z" fill="#3aca4b" stroke="#3aca4b"></path><path d="M507 277L515 440L558 363Z" fill="#09261e" stroke="#09261e"></path><path d="M558 363L515 440L607 409Z" fill="#71fc3d" stroke="#71fc3d"></path><path d="M554 247L433 229L507 277Z" fill="#008046" stroke="#008046"></path><path d="M507 277L334 328L515 440Z" fill="#05110e" stroke="#05110e"></path><path d="M744 241L613 149L554 247Z" fill="#0c984a" stroke="#0c984a"></path><path d="M554 247L447 89L433 229Z" fill="#3aca4b" stroke="#3aca4b"></path><path d="M567 540L677 445L607 409Z" fill="#71fc3d" stroke="#71fc3d"></path><path d="M607 409L677 445L689 336Z" fill="#0c984a" stroke="#0c984a"></path><path d="M287 105L371 254L433 229Z" fill="#09261e" stroke="#09261e"></path><path d="M433 229L371 254L507 277Z" fill="#00683f" stroke="#00683f"></path><path d="M809 336L744 241L689 336Z" fill="#00683f" stroke="#00683f"></path><path d="M689 336L744 241L554 247Z" fill="#23b14c" stroke="#23b14c"></path><path d="M371 254L334 328L507 277Z" fill="#23b14c" stroke="#23b14c"></path><path d="M515 440L567 540L607 409Z" fill="#005136" stroke="#005136"></path><path d="M488 540L567 540L515 440Z" fill="#3aca4b" stroke="#3aca4b"></path><path d="M613 149L447 89L554 247Z" fill="#008046" stroke="#008046"></path><path d="M371 254L240 309L334 328Z" fill="#008046" stroke="#008046"></path><path d="M353 463L488 540L515 440Z" fill="#0c984a" stroke="#0c984a"></path><path d="M839 479L809 336L677 445Z" fill="#008046" stroke="#008046"></path><path d="M677 445L809 336L689 336Z" fill="#008046" stroke="#008046"></path><path d="M334 328L353 463L515 440Z" fill="#00683f" stroke="#00683f"></path><path d="M744 241L738 118L613 149Z" fill="#008046" stroke="#008046"></path><path d="M613 149L583 0L447 89Z" fill="#09261e" stroke="#09261e"></path><path d="M829 175L738 118L744 241Z" fill="#005136" stroke="#005136"></path><path d="M567 540L689 540L677 445Z" fill="#00683f" stroke="#00683f"></path><path d="M809 336L829 175L744 241Z" fill="#05110e" stroke="#05110e"></path><path d="M405 0L375 60L447 89Z" fill="#09261e" stroke="#09261e"></path><path d="M447 89L375 60L433 229Z" fill="#033b2b" stroke="#033b2b"></path><path d="M716 0L613 149L738 118Z" fill="#23b14c" stroke="#23b14c"></path><path d="M716 0L583 0L613 149Z" fill="#005136" stroke="#005136"></path><path d="M353 463L360 540L488 540Z" fill="#0c984a" stroke="#0c984a"></path><path d="M195 540L360 540L353 463Z" fill="#008046" stroke="#008046"></path><path d="M583 0L485 0L447 89Z" fill="#55e346" stroke="#55e346"></path><path d="M217 186L240 309L371 254Z" fill="#71fc3d" stroke="#71fc3d"></path><path d="M334 328L220 417L353 463Z" fill="#00683f" stroke="#00683f"></path><path d="M689 540L839 479L677 445Z" fill="#0c984a" stroke="#0c984a"></path><path d="M960 177L860 141L829 175Z" fill="#3aca4b" stroke="#3aca4b"></path><path d="M286 0L287 105L375 60Z" fill="#71fc3d" stroke="#71fc3d"></path><path d="M375 60L287 105L433 229Z" fill="#23b14c" stroke="#23b14c"></path><path d="M485 0L405 0L447 89Z" fill="#005136" stroke="#005136"></path><path d="M883 0L716 0L738 118Z" fill="#55e346" stroke="#55e346"></path><path d="M960 282L829 175L809 336Z" fill="#55e346" stroke="#55e346"></path><path d="M829 175L860 141L738 118Z" fill="#71fc3d" stroke="#71fc3d"></path><path d="M240 309L220 417L334 328Z" fill="#00683f" stroke="#00683f"></path><path d="M287 105L217 186L371 254Z" fill="#09261e" stroke="#09261e"></path><path d="M240 309L87 338L220 417Z" fill="#0c984a" stroke="#0c984a"></path><path d="M689 540L847 540L839 479Z" fill="#05110e" stroke="#05110e"></path><path d="M960 405L960 282L809 336Z" fill="#008046" stroke="#008046"></path><path d="M960 405L809 336L839 479Z" fill="#00683f" stroke="#00683f"></path><path d="M405 0L286 0L375 60Z" fill="#23b14c" stroke="#23b14c"></path><path d="M101 88L84 168L217 186Z" fill="#3aca4b" stroke="#3aca4b"></path><path d="M960 540L960 405L839 479Z" fill="#09261e" stroke="#09261e"></path><path d="M960 282L960 177L829 175Z" fill="#0c984a" stroke="#0c984a"></path><path d="M860 141L883 0L738 118Z" fill="#09261e" stroke="#09261e"></path><path d="M129 540L195 540L220 417Z" fill="#0c984a" stroke="#0c984a"></path><path d="M220 417L195 540L353 463Z" fill="#005136" stroke="#005136"></path><path d="M960 89L883 0L860 141Z" fill="#09261e" stroke="#09261e"></path><path d="M960 177L960 89L860 141Z" fill="#71fc3d" stroke="#71fc3d"></path><path d="M847 540L960 540L839 479Z" fill="#55e346" stroke="#55e346"></path><path d="M217 186L87 338L240 309Z" fill="#005136" stroke="#005136"></path><path d="M84 168L87 338L217 186Z" fill="#05110e" stroke="#05110e"></path><path d="M81 462L129 540L220 417Z" fill="#55e346" stroke="#55e346"></path><path d="M101 88L217 186L287 105Z" fill="#00683f" stroke="#00683f"></path><path d="M0 460L81 462L87 338Z" fill="#3aca4b" stroke="#3aca4b"></path><path d="M87 338L81 462L220 417Z" fill="#005136" stroke="#005136"></path><path d="M960 89L960 0L883 0Z" fill="#033b2b" stroke="#033b2b"></path><path d="M121 0L101 88L287 105Z" fill="#005136" stroke="#005136"></path><path d="M286 0L121 0L287 105Z" fill="#09261e" stroke="#09261e"></path><path d="M0 257L0 310L87 338Z" fill="#005136" stroke="#005136"></path><path d="M0 257L87 338L84 168Z" fill="#23b14c" stroke="#23b14c"></path><path d="M0 257L84 168L0 113Z" fill="#033b2b" stroke="#033b2b"></path><path d="M0 113L84 168L101 88Z" fill="#00683f" stroke="#00683f"></path><path d="M0 310L0 460L87 338Z" fill="#23b14c" stroke="#23b14c"></path><path d="M81 462L0 540L129 540Z" fill="#23b14c" stroke="#23b14c"></path><path d="M0 0L0 113L101 88Z" fill="#3aca4b" stroke="#3aca4b"></path><path d="M0 460L0 540L81 462Z" fill="#71fc3d" stroke="#71fc3d"></path><path d="M121 0L0 0L101 88Z" fill="#09261e" stroke="#09261e"></path></g></svg>