<svg id="visual" viewBox="0 0 960 540" width="960" height="540" xmlns="http://www.w3.org/2000/svg" xmlns:xlink="http://www.w3.org/1999/xlink" version="1.1"><g stroke-width="1" stroke-linejoin="bevel"><path d="M439 320L483 187L404 278Z" fill="#fcaf3c" stroke="#fcaf3c"></path><path d="M483 187L365 187L404 278Z" fill="#4c682d" stroke="#4c682d"></path><path d="M439 320L619 252L483 187Z" fill="#67792c" stroke="#67792c"></path><path d="M552 368L619 252L439 320Z" fill="#fcaf3c" stroke="#fcaf3c"></path><path d="M509 61L383 108L483 187Z" fill="#67792c" stroke="#67792c"></path><path d="M483 187L383 108L365 187Z" fill="#4c682d" stroke="#4c682d"></path><path d="M619 252L597 117L483 187Z" fill="#fcaf3c" stroke="#fcaf3c"></path><path d="M597 117L509 61L483 187Z" fill="#87892b" stroke="#87892b"></path><path d="M279 79L270 219L365 187Z" fill="#0f221b" stroke="#0f221b"></path><path d="M365 187L270 219L404 278Z" fill="#67792c" stroke="#67792c"></path><path d="M313 448L437 467L439 320Z" fill="#163323" stroke="#163323"></path><path d="M313 448L439 320L404 278Z" fill="#fcaf3c" stroke="#fcaf3c"></path><path d="M439 320L437 467L552 368Z" fill="#35572c" stroke="#35572c"></path><path d="M270 219L235 291L404 278Z" fill="#67792c" stroke="#67792c"></path><path d="M765 283L705 186L619 252Z" fill="#d2a431" stroke="#d2a431"></path><path d="M619 252L705 186L597 117Z" fill="#4c682d" stroke="#4c682d"></path><path d="M235 291L313 448L404 278Z" fill="#87892b" stroke="#87892b"></path><path d="M705 186L692 129L597 117Z" fill="#0f221b" stroke="#0f221b"></path><path d="M630 0L508 0L509 61Z" fill="#35572c" stroke="#35572c"></path><path d="M437 467L605 478L552 368Z" fill="#35572c" stroke="#35572c"></path><path d="M706 438L765 283L619 252Z" fill="#67792c" stroke="#67792c"></path><path d="M630 0L509 61L597 117Z" fill="#67792c" stroke="#67792c"></path><path d="M509 61L379 0L383 108Z" fill="#d2a431" stroke="#d2a431"></path><path d="M383 108L279 79L365 187Z" fill="#d2a431" stroke="#d2a431"></path><path d="M270 219L105 205L235 291Z" fill="#4c682d" stroke="#4c682d"></path><path d="M379 0L279 79L383 108Z" fill="#35572c" stroke="#35572c"></path><path d="M508 0L379 0L509 61Z" fill="#67792c" stroke="#67792c"></path><path d="M437 467L496 540L605 478Z" fill="#aa972c" stroke="#aa972c"></path><path d="M358 540L496 540L437 467Z" fill="#35572c" stroke="#35572c"></path><path d="M706 438L619 252L552 368Z" fill="#4c682d" stroke="#4c682d"></path><path d="M839 68L717 0L692 129Z" fill="#0f221b" stroke="#0f221b"></path><path d="M605 478L706 438L552 368Z" fill="#35572c" stroke="#35572c"></path><path d="M677 540L706 438L605 478Z" fill="#35572c" stroke="#35572c"></path><path d="M692 129L630 0L597 117Z" fill="#fcaf3c" stroke="#fcaf3c"></path><path d="M238 461L358 540L313 448Z" fill="#aa972c" stroke="#aa972c"></path><path d="M313 448L358 540L437 467Z" fill="#234529" stroke="#234529"></path><path d="M496 540L594 540L605 478Z" fill="#d2a431" stroke="#d2a431"></path><path d="M235 291L238 461L313 448Z" fill="#163323" stroke="#163323"></path><path d="M379 0L283 0L279 79Z" fill="#aa972c" stroke="#aa972c"></path><path d="M279 79L133 125L270 219Z" fill="#d2a431" stroke="#d2a431"></path><path d="M846 445L798 359L706 438Z" fill="#234529" stroke="#234529"></path><path d="M706 438L798 359L765 283Z" fill="#35572c" stroke="#35572c"></path><path d="M594 540L677 540L605 478Z" fill="#4c682d" stroke="#4c682d"></path><path d="M692 129L717 0L630 0Z" fill="#d2a431" stroke="#d2a431"></path><path d="M839 68L692 129L705 186Z" fill="#05110e" stroke="#05110e"></path><path d="M846 220L705 186L765 283Z" fill="#fcaf3c" stroke="#fcaf3c"></path><path d="M154 0L133 125L279 79Z" fill="#d2a431" stroke="#d2a431"></path><path d="M235 291L119 432L238 461Z" fill="#aa972c" stroke="#aa972c"></path><path d="M133 125L105 205L270 219Z" fill="#163323" stroke="#163323"></path><path d="M798 359L846 220L765 283Z" fill="#234529" stroke="#234529"></path><path d="M238 461L203 540L358 540Z" fill="#fcaf3c" stroke="#fcaf3c"></path><path d="M166 540L203 540L238 461Z" fill="#163323" stroke="#163323"></path><path d="M74 348L119 432L235 291Z" fill="#163323" stroke="#163323"></path><path d="M105 205L74 348L235 291Z" fill="#0f221b" stroke="#0f221b"></path><path d="M0 91L0 199L105 205Z" fill="#163323" stroke="#163323"></path><path d="M283 0L154 0L279 79Z" fill="#0f221b" stroke="#0f221b"></path><path d="M846 220L839 68L705 186Z" fill="#4c682d" stroke="#4c682d"></path><path d="M0 540L166 540L119 432Z" fill="#87892b" stroke="#87892b"></path><path d="M119 432L166 540L238 461Z" fill="#4c682d" stroke="#4c682d"></path><path d="M832 540L846 445L706 438Z" fill="#163323" stroke="#163323"></path><path d="M798 359L960 262L846 220Z" fill="#87892b" stroke="#87892b"></path><path d="M960 0L842 0L839 68Z" fill="#87892b" stroke="#87892b"></path><path d="M839 68L842 0L717 0Z" fill="#234529" stroke="#234529"></path><path d="M677 540L832 540L706 438Z" fill="#234529" stroke="#234529"></path><path d="M0 91L105 205L133 125Z" fill="#05110e" stroke="#05110e"></path><path d="M105 205L0 199L74 348Z" fill="#35572c" stroke="#35572c"></path><path d="M74 348L0 428L119 432Z" fill="#35572c" stroke="#35572c"></path><path d="M0 199L0 358L74 348Z" fill="#87892b" stroke="#87892b"></path><path d="M960 357L798 359L846 445Z" fill="#234529" stroke="#234529"></path><path d="M960 357L960 262L798 359Z" fill="#0f221b" stroke="#0f221b"></path><path d="M846 220L960 98L839 68Z" fill="#4c682d" stroke="#4c682d"></path><path d="M960 479L960 357L846 445Z" fill="#fcaf3c" stroke="#fcaf3c"></path><path d="M154 0L0 91L133 125Z" fill="#87892b" stroke="#87892b"></path><path d="M0 358L0 428L74 348Z" fill="#aa972c" stroke="#aa972c"></path><path d="M960 262L960 98L846 220Z" fill="#67792c" stroke="#67792c"></path><path d="M832 540L960 479L846 445Z" fill="#aa972c" stroke="#aa972c"></path><path d="M154 0L0 0L0 91Z" fill="#0f221b" stroke="#0f221b"></path><path d="M0 428L0 540L119 432Z" fill="#163323" stroke="#163323"></path><path d="M960 98L960 0L839 68Z" fill="#35572c" stroke="#35572c"></path><path d="M832 540L960 540L960 479Z" fill="#87892b" stroke="#87892b"></path></g></svg>