<svg id="visual" viewBox="0 0 960 540" width="960" height="540" xmlns="http://www.w3.org/2000/svg" xmlns:xlink="http://www.w3.org/1999/xlink" version="1.1"><rect width="960" height="540" fill="#000000"></rect><g><g transform="translate(247 123)"><path d="M0 -34L29.4 -17L29.4 17L0 34L-29.4 17L-29.4 -17Z" stroke="#00ff93" fill="none" stroke-width="1"></path></g><g transform="translate(639 492)"><path d="M0 -20L17.3 -10L17.3 10L0 20L-17.3 10L-17.3 -10Z" stroke="#00ff93" fill="none" stroke-width="1"></path></g><g transform="translate(717 36)"><path d="M0 -7L6.1 -3.5L6.1 3.5L0 7L-6.1 3.5L-6.1 -3.5Z" stroke="#00ff93" fill="none" stroke-width="1"></path></g><g transform="translate(804 11)"><path d="M0 -23L19.9 -11.5L19.9 11.5L0 23L-19.9 11.5L-19.9 -11.5Z" stroke="#00ff93" fill="none" stroke-width="1"></path></g><g transform="translate(605 75)"><path d="M0 -18L15.6 -9L15.6 9L0 18L-15.6 9L-15.6 -9Z" stroke="#00ff93" fill="none" stroke-width="1"></path></g><g transform="translate(310 449)"><path d="M0 -12L10.4 -6L10.4 6L0 12L-10.4 6L-10.4 -6Z" stroke="#00ff93" fill="none" stroke-width="1"></path></g><g transform="translate(355 534)"><path d="M0 -25L21.7 -12.5L21.7 12.5L0 25L-21.7 12.5L-21.7 -12.5Z" stroke="#00ff93" fill="none" stroke-width="1"></path></g><g transform="translate(696 234)"><path d="M0 -8L6.9 -4L6.9 4L0 8L-6.9 4L-6.9 -4Z" stroke="#00ff93" fill="none" stroke-width="1"></path></g><g transform="translate(117 209)"><path d="M0 -27L23.4 -13.5L23.4 13.5L0 27L-23.4 13.5L-23.4 -13.5Z" stroke="#00ff93" fill="none" stroke-width="1"></path></g><g transform="translate(76 142)"><path d="M0 -19L16.5 -9.5L16.5 9.5L0 19L-16.5 9.5L-16.5 -9.5Z" stroke="#00ff93" fill="none" stroke-width="1"></path></g><g transform="translate(275 19)"><path d="M0 -28L24.2 -14L24.2 14L0 28L-24.2 14L-24.2 -14Z" stroke="#00ff93" fill="none" stroke-width="1"></path></g><g transform="translate(761 175)"><path d="M0 -12L10.4 -6L10.4 6L0 12L-10.4 6L-10.4 -6Z" stroke="#00ff93" fill="none" stroke-width="1"></path></g><g transform="translate(592 203)"><path d="M0 -21L18.2 -10.5L18.2 10.5L0 21L-18.2 10.5L-18.2 -10.5Z" stroke="#00ff93" fill="none" stroke-width="1"></path></g><g transform="translate(13 32)"><path d="M0 -10L8.7 -5L8.7 5L0 10L-8.7 5L-8.7 -5Z" stroke="#00ff93" fill="none" stroke-width="1"></path></g><g transform="translate(501 487)"><path d="M0 -28L24.2 -14L24.2 14L0 28L-24.2 14L-24.2 -14Z" stroke="#00ff93" fill="none" stroke-width="1"></path></g><g transform="translate(422 468)"><path d="M0 -9L7.8 -4.5L7.8 4.5L0 9L-7.8 4.5L-7.8 -4.5Z" stroke="#00ff93" fill="none" stroke-width="1"></path></g><g transform="translate(883 274)"><path d="M0 -31L26.8 -15.5L26.8 15.5L0 31L-26.8 15.5L-26.8 -15.5Z" stroke="#00ff93" fill="none" stroke-width="1"></path></g><g transform="translate(68 470)"><path d="M0 -17L14.7 -8.5L14.7 8.5L0 17L-14.7 8.5L-14.7 -8.5Z" stroke="#00ff93" fill="none" stroke-width="1"></path></g><g transform="translate(637 354)"><path d="M0 -25L21.7 -12.5L21.7 12.5L0 25L-21.7 12.5L-21.7 -12.5Z" stroke="#00ff93" fill="none" stroke-width="1"></path></g><g transform="translate(409 107)"><path d="M0 -23L19.9 -11.5L19.9 11.5L0 23L-19.9 11.5L-19.9 -11.5Z" stroke="#00ff93" fill="none" stroke-width="1"></path></g><g transform="translate(957 223)"><path d="M0 -32L27.7 -16L27.7 16L0 32L-27.7 16L-27.7 -16Z" stroke="#00ff93" fill="none" stroke-width="1"></path></g><g transform="translate(38 398)"><path d="M0 -22L19.1 -11L19.1 11L0 22L-19.1 11L-19.1 -11Z" stroke="#00ff93" fill="none" stroke-width="1"></path></g><g transform="translate(863 88)"><path d="M0 -19L16.5 -9.5L16.5 9.5L0 19L-16.5 9.5L-16.5 -9.5Z" stroke="#00ff93" fill="none" stroke-width="1"></path></g><g transform="translate(292 331)"><path d="M0 -7L6.1 -3.5L6.1 3.5L0 7L-6.1 3.5L-6.1 -3.5Z" stroke="#00ff93" fill="none" stroke-width="1"></path></g><g transform="translate(374 226)"><path d="M0 -31L26.8 -15.5L26.8 15.5L0 31L-26.8 15.5L-26.8 -15.5Z" stroke="#00ff93" fill="none" stroke-width="1"></path></g><g transform="translate(509 95)"><path d="M0 -5L4.3 -2.5L4.3 2.5L0 5L-4.3 2.5L-4.3 -2.5Z" stroke="#00ff93" fill="none" stroke-width="1"></path></g><g transform="translate(913 460)"><path d="M0 -14L12.1 -7L12.1 7L0 14L-12.1 7L-12.1 -7Z" stroke="#00ff93" fill="none" stroke-width="1"></path></g><g transform="translate(443 37)"><path d="M0 -15L13 -7.5L13 7.5L0 15L-13 7.5L-13 -7.5Z" stroke="#00ff93" fill="none" stroke-width="1"></path></g><g transform="translate(218 376)"><path d="M0 -30L26 -15L26 15L0 30L-26 15L-26 -15Z" stroke="#00ff93" fill="none" stroke-width="1"></path></g><g transform="translate(41 288)"><path d="M0 -30L26 -15L26 15L0 30L-26 15L-26 -15Z" stroke="#00ff93" fill="none" stroke-width="1"></path></g><g transform="translate(71 74)"><path d="M0 -32L27.7 -16L27.7 16L0 32L-27.7 16L-27.7 -16Z" stroke="#00ff93" fill="none" stroke-width="1"></path></g><g transform="translate(777 472)"><path d="M0 -6L5.2 -3L5.2 3L0 6L-5.2 3L-5.2 -3Z" stroke="#00ff93" fill="none" stroke-width="1"></path></g><g transform="translate(686 156)"><path d="M0 -29L25.1 -14.5L25.1 14.5L0 29L-25.1 14.5L-25.1 -14.5Z" stroke="#00ff93" fill="none" stroke-width="1"></path></g><g transform="translate(809 353)"><path d="M0 -32L27.7 -16L27.7 16L0 32L-27.7 16L-27.7 -16Z" stroke="#00ff93" fill="none" stroke-width="1"></path></g><g transform="translate(544 364)"><path d="M0 -19L16.5 -9.5L16.5 9.5L0 19L-16.5 9.5L-16.5 -9.5Z" stroke="#00ff93" fill="none" stroke-width="1"></path></g><g transform="translate(5 136)"><path d="M0 -25L21.7 -12.5L21.7 12.5L0 25L-21.7 12.5L-21.7 -12.5Z" stroke="#00ff93" fill="none" stroke-width="1"></path></g><g transform="translate(727 401)"><path d="M0 -7L6.1 -3.5L6.1 3.5L0 7L-6.1 3.5L-6.1 -3.5Z" stroke="#00ff93" fill="none" stroke-width="1"></path></g><g transform="translate(569 518)"><path d="M0 -22L19.1 -11L19.1 11L0 22L-19.1 11L-19.1 -11Z" stroke="#00ff93" fill="none" stroke-width="1"></path></g><g transform="translate(956 329)"><path d="M0 -7L6.1 -3.5L6.1 3.5L0 7L-6.1 3.5L-6.1 -3.5Z" stroke="#00ff93" fill="none" stroke-width="1"></path></g><g transform="translate(755 307)"><path d="M0 -5L4.3 -2.5L4.3 2.5L0 5L-4.3 2.5L-4.3 -2.5Z" stroke="#00ff93" fill="none" stroke-width="1"></path></g><g transform="translate(200 257)"><path d="M0 -8L6.9 -4L6.9 4L0 8L-6.9 4L-6.9 -4Z" stroke="#00ff93" fill="none" stroke-width="1"></path></g><g transform="translate(849 184)"><path d="M0 -13L11.3 -6.5L11.3 6.5L0 13L-11.3 6.5L-11.3 -6.5Z" stroke="#00ff93" fill="none" stroke-width="1"></path></g><g transform="translate(6 216)"><path d="M0 -29L25.1 -14.5L25.1 14.5L0 29L-25.1 14.5L-25.1 -14.5Z" stroke="#00ff93" fill="none" stroke-width="1"></path></g><g transform="translate(211 532)"><path d="M0 -28L24.2 -14L24.2 14L0 28L-24.2 14L-24.2 -14Z" stroke="#00ff93" fill="none" stroke-width="1"></path></g><g transform="translate(306 248)"><path d="M0 -25L21.7 -12.5L21.7 12.5L0 25L-21.7 12.5L-21.7 -12.5Z" stroke="#00ff93" fill="none" stroke-width="1"></path></g><g transform="translate(445 191)"><path d="M0 -27L23.4 -13.5L23.4 13.5L0 27L-23.4 13.5L-23.4 -13.5Z" stroke="#00ff93" fill="none" stroke-width="1"></path></g><g transform="translate(651 4)"><path d="M0 -13L11.3 -6.5L11.3 6.5L0 13L-11.3 6.5L-11.3 -6.5Z" stroke="#00ff93" fill="none" stroke-width="1"></path></g><g transform="translate(130 365)"><path d="M0 -31L26.8 -15.5L26.8 15.5L0 31L-26.8 15.5L-26.8 -15.5Z" stroke="#00ff93" fill="none" stroke-width="1"></path></g><g transform="translate(153 40)"><path d="M0 -26L22.5 -13L22.5 13L0 26L-22.5 13L-22.5 -13Z" stroke="#00ff93" fill="none" stroke-width="1"></path></g><g transform="translate(415 378)"><path d="M0 -28L24.2 -14L24.2 14L0 28L-24.2 14L-24.2 -14Z" stroke="#00ff93" fill="none" stroke-width="1"></path></g><g transform="translate(525 162)"><path d="M0 -7L6.1 -3.5L6.1 3.5L0 7L-6.1 3.5L-6.1 -3.5Z" stroke="#00ff93" fill="none" stroke-width="1"></path></g><g transform="translate(332 133)"><path d="M0 -9L7.8 -4.5L7.8 4.5L0 9L-7.8 4.5L-7.8 -4.5Z" stroke="#00ff93" fill="none" stroke-width="1"></path></g><g transform="translate(498 244)"><path d="M0 -12L10.4 -6L10.4 6L0 12L-10.4 6L-10.4 -6Z" stroke="#00ff93" fill="none" stroke-width="1"></path></g><g transform="translate(829 536)"><path d="M0 -13L11.3 -6.5L11.3 6.5L0 13L-11.3 6.5L-11.3 -6.5Z" stroke="#00ff93" fill="none" stroke-width="1"></path></g><g transform="translate(946 61)"><path d="M0 -11L9.5 -5.5L9.5 5.5L0 11L-9.5 5.5L-9.5 -5.5Z" stroke="#00ff93" fill="none" stroke-width="1"></path></g><g transform="translate(413 281)"><path d="M0 -25L21.7 -12.5L21.7 12.5L0 25L-21.7 12.5L-21.7 -12.5Z" stroke="#00ff93" fill="none" stroke-width="1"></path></g><g transform="translate(345 383)"><path d="M0 -13L11.3 -6.5L11.3 6.5L0 13L-11.3 6.5L-11.3 -6.5Z" stroke="#00ff93" fill="none" stroke-width="1"></path></g><g transform="translate(772 104)"><path d="M0 -22L19.1 -11L19.1 11L0 22L-19.1 11L-19.1 -11Z" stroke="#00ff93" fill="none" stroke-width="1"></path></g><g transform="translate(203 443)"><path d="M0 -10L8.7 -5L8.7 5L0 10L-8.7 5L-8.7 -5Z" stroke="#00ff93" fill="none" stroke-width="1"></path></g><g transform="translate(137 531)"><path d="M0 -32L27.7 -16L27.7 16L0 32L-27.7 16L-27.7 -16Z" stroke="#00ff93" fill="none" stroke-width="1"></path></g><g transform="translate(367 21)"><path d="M0 -14L12.1 -7L12.1 7L0 14L-12.1 7L-12.1 -7Z" stroke="#00ff93" fill="none" stroke-width="1"></path></g><g transform="translate(280 511)"><path d="M0 -9L7.8 -4.5L7.8 4.5L0 9L-7.8 4.5L-7.8 -4.5Z" stroke="#00ff93" fill="none" stroke-width="1"></path></g><g transform="translate(575 273)"><path d="M0 -24L20.8 -12L20.8 12L0 24L-20.8 12L-20.8 -12Z" stroke="#00ff93" fill="none" stroke-width="1"></path></g><g transform="translate(915 134)"><path d="M0 -8L6.9 -4L6.9 4L0 8L-6.9 4L-6.9 -4Z" stroke="#00ff93" fill="none" stroke-width="1"></path></g><g transform="translate(883 345)"><path d="M0 -27L23.4 -13.5L23.4 13.5L0 27L-23.4 13.5L-23.4 -13.5Z" stroke="#00ff93" fill="none" stroke-width="1"></path></g><g transform="translate(714 510)"><path d="M0 -9L7.8 -4.5L7.8 4.5L0 9L-7.8 4.5L-7.8 -4.5Z" stroke="#00ff93" fill="none" stroke-width="1"></path></g><g transform="translate(278 185)"><path d="M0 -23L19.9 -11.5L19.9 11.5L0 23L-19.9 11.5L-19.9 -11.5Z" stroke="#00ff93" fill="none" stroke-width="1"></path></g><g transform="translate(650 424)"><path d="M0 -23L19.9 -11.5L19.9 11.5L0 23L-19.9 11.5L-19.9 -11.5Z" stroke="#00ff93" fill="none" stroke-width="1"></path></g><g transform="translate(949 520)"><path d="M0 -12L10.4 -6L10.4 6L0 12L-10.4 6L-10.4 -6Z" stroke="#00ff93" fill="none" stroke-width="1"></path></g><g transform="translate(14 537)"><path d="M0 -9L7.8 -4.5L7.8 4.5L0 9L-7.8 4.5L-7.8 -4.5Z" stroke="#00ff93" fill="none" stroke-width="1"></path></g><g transform="translate(848 413)"><path d="M0 -30L26 -15L26 15L0 30L-26 15L-26 -15Z" stroke="#00ff93" fill="none" stroke-width="1"></path></g><g transform="translate(183 170)"><path d="M0 -17L14.7 -8.5L14.7 8.5L0 17L-14.7 8.5L-14.7 -8.5Z" stroke="#00ff93" fill="none" stroke-width="1"></path></g><g transform="translate(523 13)"><path d="M0 -24L20.8 -12L20.8 12L0 24L-20.8 12L-20.8 -12Z" stroke="#00ff93" fill="none" stroke-width="1"></path></g><g transform="translate(110 284)"><path d="M0 -23L19.9 -11.5L19.9 11.5L0 23L-19.9 11.5L-19.9 -11.5Z" stroke="#00ff93" fill="none" stroke-width="1"></path></g><g transform="translate(469 325)"><path d="M0 -22L19.1 -11L19.1 11L0 22L-19.1 11L-19.1 -11Z" stroke="#00ff93" fill="none" stroke-width="1"></path></g><g transform="translate(132 444)"><path d="M0 -10L8.7 -5L8.7 5L0 10L-8.7 5L-8.7 -5Z" stroke="#00ff93" fill="none" stroke-width="1"></path></g><g transform="translate(877 12)"><path d="M0 -7L6.1 -3.5L6.1 3.5L0 7L-6.1 3.5L-6.1 -3.5Z" stroke="#00ff93" fill="none" stroke-width="1"></path></g><g transform="translate(575 442)"><path d="M0 -13L11.3 -6.5L11.3 6.5L0 13L-11.3 6.5L-11.3 -6.5Z" stroke="#00ff93" fill="none" stroke-width="1"></path></g><g transform="translate(472 418)"><path d="M0 -7L6.1 -3.5L6.1 3.5L0 7L-6.1 3.5L-6.1 -3.5Z" stroke="#00ff93" fill="none" stroke-width="1"></path></g><g transform="translate(798 249)"><path d="M0 -15L13 -7.5L13 7.5L0 15L-13 7.5L-13 -7.5Z" stroke="#00ff93" fill="none" stroke-width="1"></path></g><g transform="translate(957 398)"><path d="M0 -22L19.1 -11L19.1 11L0 22L-19.1 11L-19.1 -11Z" stroke="#00ff93" fill="none" stroke-width="1"></path></g><g transform="translate(455 537)"><path d="M0 -17L14.7 -8.5L14.7 8.5L0 17L-14.7 8.5L-14.7 -8.5Z" stroke="#00ff93" fill="none" stroke-width="1"></path></g><g transform="translate(82 5)"><path d="M0 -16L13.9 -8L13.9 8L0 16L-13.9 8L-13.9 -8Z" stroke="#00ff93" fill="none" stroke-width="1"></path></g></g></svg>